<mxfile host="app.diagrams.net" modified="2021-12-14T20:50:39.080Z" agent="5.0 (Windows NT 10.0; Win64; x64) AppleWebKit/537.36 (KHTML, like Gecko) Chrome/96.0.4664.110 Safari/537.36" etag="UooxuzFGqIv1outM7wil" version="15.9.6" type="github">
  <diagram id="_CrB7jmD-zcUezFovFIp" name="Page-1">
    <mxGraphModel dx="889" dy="1256" grid="1" gridSize="10" guides="1" tooltips="1" connect="1" arrows="1" fold="1" page="1" pageScale="1" pageWidth="827" pageHeight="1169" math="0" shadow="0">
      <root>
        <mxCell id="0" />
        <mxCell id="1" parent="0" />
        <mxCell id="nzrLz13nqQp0oSJpw0R1-1" value="&lt;span lang=&quot;EN-US&quot; style=&quot;line-height: 107% ; font-family: &amp;#34;consolas&amp;#34;&quot;&gt;&lt;font style=&quot;font-size: 16px&quot;&gt;static void Main(string[] args)&lt;/font&gt;&lt;/span&gt;" style="text;html=1;align=center;verticalAlign=middle;resizable=0;points=[];autosize=1;strokeColor=none;fillColor=none;strokeWidth=12;" vertex="1" parent="1">
          <mxGeometry x="20" y="50" width="290" height="20" as="geometry" />
        </mxCell>
        <mxCell id="nzrLz13nqQp0oSJpw0R1-3" style="edgeStyle=orthogonalEdgeStyle;rounded=0;orthogonalLoop=1;jettySize=auto;html=1;exitX=0.5;exitY=1;exitDx=0;exitDy=0;fontSize=16;" edge="1" parent="1" source="nzrLz13nqQp0oSJpw0R1-2" target="nzrLz13nqQp0oSJpw0R1-4">
          <mxGeometry relative="1" as="geometry">
            <mxPoint x="286" y="152" as="targetPoint" />
            <Array as="points">
              <mxPoint x="286" y="152" />
              <mxPoint x="286" y="152" />
            </Array>
          </mxGeometry>
        </mxCell>
        <mxCell id="nzrLz13nqQp0oSJpw0R1-2" value="Початок" style="ellipse;whiteSpace=wrap;html=1;fontSize=16;strokeWidth=1;" vertex="1" parent="1">
          <mxGeometry x="243" y="82" width="85" height="40" as="geometry" />
        </mxCell>
        <mxCell id="nzrLz13nqQp0oSJpw0R1-6" style="edgeStyle=orthogonalEdgeStyle;rounded=0;orthogonalLoop=1;jettySize=auto;html=1;exitX=0.5;exitY=1;exitDx=0;exitDy=0;fontSize=16;endArrow=none;endFill=0;" edge="1" parent="1" source="nzrLz13nqQp0oSJpw0R1-4" target="nzrLz13nqQp0oSJpw0R1-8">
          <mxGeometry relative="1" as="geometry">
            <mxPoint x="286" y="262" as="targetPoint" />
          </mxGeometry>
        </mxCell>
        <mxCell id="nzrLz13nqQp0oSJpw0R1-4" value="&lt;div&gt;long[,] A;&lt;/div&gt;&lt;div&gt;int N, M;&lt;/div&gt;&lt;div&gt;&amp;nbsp; long K, t;&lt;/div&gt;&lt;div&gt;Random rnd = new Random();&lt;br&gt;&lt;/div&gt;" style="shape=parallelogram;perimeter=parallelogramPerimeter;whiteSpace=wrap;html=1;fixedSize=1;fontSize=16;strokeWidth=1;rounded=1;" vertex="1" parent="1">
          <mxGeometry x="199.25" y="142" width="172.5" height="100" as="geometry" />
        </mxCell>
        <mxCell id="nzrLz13nqQp0oSJpw0R1-9" style="edgeStyle=orthogonalEdgeStyle;rounded=0;orthogonalLoop=1;jettySize=auto;html=1;exitX=0.5;exitY=1;exitDx=0;exitDy=0;fontSize=16;endArrow=none;endFill=0;" edge="1" parent="1" source="nzrLz13nqQp0oSJpw0R1-8" target="nzrLz13nqQp0oSJpw0R1-10">
          <mxGeometry relative="1" as="geometry">
            <mxPoint x="286" y="312" as="targetPoint" />
          </mxGeometry>
        </mxCell>
        <mxCell id="nzrLz13nqQp0oSJpw0R1-8" value="Вивести&lt;br&gt;K =&amp;nbsp;" style="rounded=1;whiteSpace=wrap;html=1;fontSize=16;strokeWidth=1;" vertex="1" parent="1">
          <mxGeometry x="244.25" y="262" width="83.75" height="40" as="geometry" />
        </mxCell>
        <mxCell id="nzrLz13nqQp0oSJpw0R1-19" style="edgeStyle=orthogonalEdgeStyle;rounded=0;orthogonalLoop=1;jettySize=auto;html=1;exitX=0.5;exitY=1;exitDx=0;exitDy=0;entryX=0.5;entryY=0;entryDx=0;entryDy=0;fontSize=16;endArrow=none;endFill=0;" edge="1" parent="1" source="nzrLz13nqQp0oSJpw0R1-10" target="nzrLz13nqQp0oSJpw0R1-12">
          <mxGeometry relative="1" as="geometry" />
        </mxCell>
        <mxCell id="nzrLz13nqQp0oSJpw0R1-10" value="K = Convert.ToInt32(ReadLine());" style="rounded=1;whiteSpace=wrap;html=1;fontSize=16;strokeWidth=1;" vertex="1" parent="1">
          <mxGeometry x="169.25" y="312" width="232.5" height="40" as="geometry" />
        </mxCell>
        <mxCell id="nzrLz13nqQp0oSJpw0R1-11" style="edgeStyle=orthogonalEdgeStyle;rounded=0;orthogonalLoop=1;jettySize=auto;html=1;exitX=0.5;exitY=1;exitDx=0;exitDy=0;fontSize=16;endArrow=none;endFill=0;" edge="1" source="nzrLz13nqQp0oSJpw0R1-12" target="nzrLz13nqQp0oSJpw0R1-13" parent="1">
          <mxGeometry relative="1" as="geometry">
            <mxPoint x="286.63" y="422" as="targetPoint" />
          </mxGeometry>
        </mxCell>
        <mxCell id="nzrLz13nqQp0oSJpw0R1-12" value="Вивести&lt;br&gt;K =&amp;nbsp;" style="rounded=1;whiteSpace=wrap;html=1;fontSize=16;strokeWidth=1;" vertex="1" parent="1">
          <mxGeometry x="244.88" y="372" width="83.75" height="40" as="geometry" />
        </mxCell>
        <mxCell id="nzrLz13nqQp0oSJpw0R1-20" style="edgeStyle=orthogonalEdgeStyle;rounded=0;orthogonalLoop=1;jettySize=auto;html=1;exitX=0.5;exitY=1;exitDx=0;exitDy=0;entryX=0.5;entryY=0;entryDx=0;entryDy=0;fontSize=16;endArrow=none;endFill=0;" edge="1" parent="1" source="nzrLz13nqQp0oSJpw0R1-13" target="nzrLz13nqQp0oSJpw0R1-17">
          <mxGeometry relative="1" as="geometry" />
        </mxCell>
        <mxCell id="nzrLz13nqQp0oSJpw0R1-13" value="K = Convert.ToInt32(ReadLine());" style="rounded=1;whiteSpace=wrap;html=1;fontSize=16;strokeWidth=1;" vertex="1" parent="1">
          <mxGeometry x="169.88" y="422" width="232.5" height="40" as="geometry" />
        </mxCell>
        <mxCell id="nzrLz13nqQp0oSJpw0R1-16" style="edgeStyle=orthogonalEdgeStyle;rounded=0;orthogonalLoop=1;jettySize=auto;html=1;exitX=0.5;exitY=1;exitDx=0;exitDy=0;fontSize=16;endArrow=none;endFill=0;" edge="1" source="nzrLz13nqQp0oSJpw0R1-17" target="nzrLz13nqQp0oSJpw0R1-18" parent="1">
          <mxGeometry relative="1" as="geometry">
            <mxPoint x="287.26" y="542" as="targetPoint" />
          </mxGeometry>
        </mxCell>
        <mxCell id="nzrLz13nqQp0oSJpw0R1-17" value="Вивести&lt;br&gt;K =&amp;nbsp;" style="rounded=1;whiteSpace=wrap;html=1;fontSize=16;strokeWidth=1;" vertex="1" parent="1">
          <mxGeometry x="240" y="492" width="83.75" height="40" as="geometry" />
        </mxCell>
        <mxCell id="nzrLz13nqQp0oSJpw0R1-21" style="edgeStyle=orthogonalEdgeStyle;rounded=0;orthogonalLoop=1;jettySize=auto;html=1;exitX=0.5;exitY=1;exitDx=0;exitDy=0;fontSize=16;endArrow=none;endFill=0;" edge="1" parent="1" source="nzrLz13nqQp0oSJpw0R1-18" target="nzrLz13nqQp0oSJpw0R1-22">
          <mxGeometry relative="1" as="geometry">
            <mxPoint x="287" y="602" as="targetPoint" />
          </mxGeometry>
        </mxCell>
        <mxCell id="nzrLz13nqQp0oSJpw0R1-18" value="K = Convert.ToInt32(ReadLine());" style="rounded=1;whiteSpace=wrap;html=1;fontSize=16;strokeWidth=1;" vertex="1" parent="1">
          <mxGeometry x="170.51" y="542" width="232.5" height="40" as="geometry" />
        </mxCell>
        <mxCell id="nzrLz13nqQp0oSJpw0R1-23" style="edgeStyle=orthogonalEdgeStyle;rounded=0;orthogonalLoop=1;jettySize=auto;html=1;exitX=0.5;exitY=1;exitDx=0;exitDy=0;fontSize=16;endArrow=none;endFill=0;" edge="1" parent="1" source="nzrLz13nqQp0oSJpw0R1-22" target="nzrLz13nqQp0oSJpw0R1-24">
          <mxGeometry relative="1" as="geometry">
            <mxPoint x="286.90909090909076" y="662" as="targetPoint" />
          </mxGeometry>
        </mxCell>
        <mxCell id="nzrLz13nqQp0oSJpw0R1-22" value="A = new long[N, M];" style="rounded=1;whiteSpace=wrap;html=1;fontSize=16;strokeWidth=1;" vertex="1" parent="1">
          <mxGeometry x="201.76" y="602" width="171.24" height="30" as="geometry" />
        </mxCell>
        <mxCell id="nzrLz13nqQp0oSJpw0R1-25" style="edgeStyle=orthogonalEdgeStyle;rounded=0;orthogonalLoop=1;jettySize=auto;html=1;exitX=0.5;exitY=1;exitDx=0;exitDy=0;fontSize=16;endArrow=classic;endFill=1;" edge="1" parent="1" source="nzrLz13nqQp0oSJpw0R1-24" target="nzrLz13nqQp0oSJpw0R1-26">
          <mxGeometry relative="1" as="geometry">
            <mxPoint x="287.75" y="781.9999999999998" as="targetPoint" />
          </mxGeometry>
        </mxCell>
        <mxCell id="nzrLz13nqQp0oSJpw0R1-31" style="edgeStyle=orthogonalEdgeStyle;rounded=0;orthogonalLoop=1;jettySize=auto;html=1;exitX=0;exitY=0.5;exitDx=0;exitDy=0;fontSize=16;endArrow=classic;endFill=1;entryX=0.5;entryY=0;entryDx=0;entryDy=0;" edge="1" parent="1" source="nzrLz13nqQp0oSJpw0R1-24" target="nzrLz13nqQp0oSJpw0R1-34">
          <mxGeometry relative="1" as="geometry">
            <mxPoint x="290" y="972.0000000000002" as="targetPoint" />
            <Array as="points">
              <mxPoint x="161" y="712" />
              <mxPoint x="161" y="932" />
              <mxPoint x="288" y="932" />
            </Array>
          </mxGeometry>
        </mxCell>
        <mxCell id="nzrLz13nqQp0oSJpw0R1-24" value="long i = 0; i &amp;lt; N; i++" style="rhombus;whiteSpace=wrap;html=1;rounded=1;fontSize=16;strokeWidth=1;" vertex="1" parent="1">
          <mxGeometry x="181.07" y="682" width="212.61" height="60" as="geometry" />
        </mxCell>
        <mxCell id="nzrLz13nqQp0oSJpw0R1-27" style="edgeStyle=orthogonalEdgeStyle;rounded=0;orthogonalLoop=1;jettySize=auto;html=1;exitX=0.5;exitY=1;exitDx=0;exitDy=0;fontSize=16;endArrow=classic;endFill=1;" edge="1" parent="1" source="nzrLz13nqQp0oSJpw0R1-26" target="nzrLz13nqQp0oSJpw0R1-28">
          <mxGeometry relative="1" as="geometry">
            <mxPoint x="287.75" y="862.0000000000002" as="targetPoint" />
          </mxGeometry>
        </mxCell>
        <mxCell id="nzrLz13nqQp0oSJpw0R1-30" style="edgeStyle=orthogonalEdgeStyle;rounded=0;orthogonalLoop=1;jettySize=auto;html=1;exitX=1;exitY=0.5;exitDx=0;exitDy=0;entryX=1;entryY=0.5;entryDx=0;entryDy=0;fontSize=16;endArrow=classic;endFill=1;" edge="1" parent="1" source="nzrLz13nqQp0oSJpw0R1-26" target="nzrLz13nqQp0oSJpw0R1-24">
          <mxGeometry relative="1" as="geometry" />
        </mxCell>
        <mxCell id="nzrLz13nqQp0oSJpw0R1-26" value="long j = 0; j &amp;lt; M; j++" style="rhombus;whiteSpace=wrap;html=1;rounded=1;fontSize=16;strokeWidth=1;" vertex="1" parent="1">
          <mxGeometry x="190.76" y="782" width="193.24" height="50" as="geometry" />
        </mxCell>
        <mxCell id="nzrLz13nqQp0oSJpw0R1-29" style="edgeStyle=orthogonalEdgeStyle;rounded=0;orthogonalLoop=1;jettySize=auto;html=1;exitX=0.5;exitY=1;exitDx=0;exitDy=0;fontSize=16;endArrow=classic;endFill=1;entryX=0;entryY=0.5;entryDx=0;entryDy=0;" edge="1" parent="1" source="nzrLz13nqQp0oSJpw0R1-28" target="nzrLz13nqQp0oSJpw0R1-26">
          <mxGeometry relative="1" as="geometry">
            <mxPoint x="120" y="812.0000000000002" as="targetPoint" />
          </mxGeometry>
        </mxCell>
        <mxCell id="nzrLz13nqQp0oSJpw0R1-28" value="A[i, j] = rnd.Next(1, 1000);" style="rounded=1;whiteSpace=wrap;html=1;fontSize=16;strokeWidth=1;" vertex="1" parent="1">
          <mxGeometry x="201.76" y="862" width="172.62" height="40" as="geometry" />
        </mxCell>
        <mxCell id="nzrLz13nqQp0oSJpw0R1-33" style="edgeStyle=orthogonalEdgeStyle;rounded=0;orthogonalLoop=1;jettySize=auto;html=1;exitX=0.5;exitY=1;exitDx=0;exitDy=0;fontSize=16;endArrow=none;endFill=0;" edge="1" source="nzrLz13nqQp0oSJpw0R1-34" target="nzrLz13nqQp0oSJpw0R1-36" parent="1">
          <mxGeometry relative="1" as="geometry">
            <mxPoint x="287.94" y="1002" as="targetPoint" />
          </mxGeometry>
        </mxCell>
        <mxCell id="nzrLz13nqQp0oSJpw0R1-34" value="Вивести&lt;br&gt;Created:" style="rounded=1;whiteSpace=wrap;html=1;fontSize=16;strokeWidth=1;" vertex="1" parent="1">
          <mxGeometry x="246.19" y="952" width="83.75" height="40" as="geometry" />
        </mxCell>
        <mxCell id="nzrLz13nqQp0oSJpw0R1-35" style="edgeStyle=orthogonalEdgeStyle;rounded=0;orthogonalLoop=1;jettySize=auto;html=1;exitX=0.5;exitY=1;exitDx=0;exitDy=0;entryX=0.5;entryY=0;entryDx=0;entryDy=0;fontSize=16;endArrow=none;endFill=0;" edge="1" source="nzrLz13nqQp0oSJpw0R1-36" target="nzrLz13nqQp0oSJpw0R1-38" parent="1">
          <mxGeometry relative="1" as="geometry" />
        </mxCell>
        <mxCell id="nzrLz13nqQp0oSJpw0R1-36" value="Print(A, K);&lt;br&gt;Sort(A, K);" style="rounded=1;whiteSpace=wrap;html=1;fontSize=16;strokeWidth=1;" vertex="1" parent="1">
          <mxGeometry x="230" y="1002" width="110" height="40" as="geometry" />
        </mxCell>
        <mxCell id="nzrLz13nqQp0oSJpw0R1-37" style="edgeStyle=orthogonalEdgeStyle;rounded=0;orthogonalLoop=1;jettySize=auto;html=1;exitX=0.5;exitY=1;exitDx=0;exitDy=0;fontSize=16;endArrow=none;endFill=0;entryX=0.5;entryY=0;entryDx=0;entryDy=0;" edge="1" source="nzrLz13nqQp0oSJpw0R1-38" target="nzrLz13nqQp0oSJpw0R1-45" parent="1">
          <mxGeometry relative="1" as="geometry">
            <mxPoint x="288.70000000000005" y="1117" as="targetPoint" />
          </mxGeometry>
        </mxCell>
        <mxCell id="nzrLz13nqQp0oSJpw0R1-38" value="Вивести&lt;br&gt;Sorted:&amp;nbsp;" style="rounded=1;whiteSpace=wrap;html=1;fontSize=16;strokeWidth=1;" vertex="1" parent="1">
          <mxGeometry x="246.82" y="1062" width="83.75" height="40" as="geometry" />
        </mxCell>
        <mxCell id="nzrLz13nqQp0oSJpw0R1-46" style="edgeStyle=orthogonalEdgeStyle;rounded=0;orthogonalLoop=1;jettySize=auto;html=1;exitX=0.5;exitY=1;exitDx=0;exitDy=0;fontSize=16;endArrow=classic;endFill=1;" edge="1" parent="1" source="nzrLz13nqQp0oSJpw0R1-45" target="nzrLz13nqQp0oSJpw0R1-47">
          <mxGeometry relative="1" as="geometry">
            <mxPoint x="288.4117647058823" y="1192" as="targetPoint" />
          </mxGeometry>
        </mxCell>
        <mxCell id="nzrLz13nqQp0oSJpw0R1-45" value="&lt;div&gt;Print(A, K);&lt;span&gt;&amp;nbsp; &amp;nbsp;ReadLine();&lt;/span&gt;&lt;/div&gt;" style="rounded=1;whiteSpace=wrap;html=1;fontSize=16;strokeWidth=1;" vertex="1" parent="1">
          <mxGeometry x="238.69" y="1122" width="100" height="40" as="geometry" />
        </mxCell>
        <mxCell id="nzrLz13nqQp0oSJpw0R1-47" value="Кінець" style="ellipse;whiteSpace=wrap;html=1;rounded=1;fontSize=16;strokeWidth=1;" vertex="1" parent="1">
          <mxGeometry x="228.69" y="1192" width="120" height="40" as="geometry" />
        </mxCell>
        <mxCell id="nzrLz13nqQp0oSJpw0R1-48" value="static (long, long) Next(long i, long j, long[,] A, long K)" style="text;html=1;align=center;verticalAlign=middle;resizable=0;points=[];autosize=1;strokeColor=none;fillColor=none;fontSize=16;" vertex="1" parent="1">
          <mxGeometry x="437" y="50" width="390" height="20" as="geometry" />
        </mxCell>
        <mxCell id="nzrLz13nqQp0oSJpw0R1-49" value="" style="endArrow=none;html=1;rounded=0;fontSize=16;" edge="1" parent="1">
          <mxGeometry width="50" height="50" relative="1" as="geometry">
            <mxPoint x="440" y="1240" as="sourcePoint" />
            <mxPoint x="440" as="targetPoint" />
          </mxGeometry>
        </mxCell>
        <mxCell id="nzrLz13nqQp0oSJpw0R1-50" style="edgeStyle=orthogonalEdgeStyle;rounded=0;orthogonalLoop=1;jettySize=auto;html=1;exitX=0.5;exitY=1;exitDx=0;exitDy=0;fontSize=16;" edge="1" source="nzrLz13nqQp0oSJpw0R1-51" target="nzrLz13nqQp0oSJpw0R1-53" parent="1">
          <mxGeometry relative="1" as="geometry">
            <mxPoint x="646.75" y="160" as="targetPoint" />
            <Array as="points">
              <mxPoint x="646.75" y="160" />
              <mxPoint x="646.75" y="160" />
            </Array>
          </mxGeometry>
        </mxCell>
        <mxCell id="nzrLz13nqQp0oSJpw0R1-51" value="Початок" style="ellipse;whiteSpace=wrap;html=1;fontSize=16;strokeWidth=1;" vertex="1" parent="1">
          <mxGeometry x="603.75" y="90" width="85" height="40" as="geometry" />
        </mxCell>
        <mxCell id="nzrLz13nqQp0oSJpw0R1-52" style="edgeStyle=orthogonalEdgeStyle;rounded=0;orthogonalLoop=1;jettySize=auto;html=1;exitX=0.5;exitY=1;exitDx=0;exitDy=0;fontSize=16;endArrow=none;endFill=0;" edge="1" source="nzrLz13nqQp0oSJpw0R1-53" parent="1" target="nzrLz13nqQp0oSJpw0R1-54">
          <mxGeometry relative="1" as="geometry">
            <mxPoint x="647" y="250" as="targetPoint" />
          </mxGeometry>
        </mxCell>
        <mxCell id="nzrLz13nqQp0oSJpw0R1-53" value="&lt;div&gt;&lt;div&gt;long N = A.GetLength(0);&lt;/div&gt;&lt;div&gt;&amp;nbsp;long M = A.GetLength(1);&lt;/div&gt;&lt;/div&gt;&lt;div&gt;long x;&lt;br&gt;&lt;/div&gt;" style="shape=parallelogram;perimeter=parallelogramPerimeter;whiteSpace=wrap;html=1;fixedSize=1;fontSize=16;strokeWidth=1;rounded=1;" vertex="1" parent="1">
          <mxGeometry x="536.25" y="150" width="220" height="60" as="geometry" />
        </mxCell>
        <mxCell id="nzrLz13nqQp0oSJpw0R1-55" style="edgeStyle=orthogonalEdgeStyle;rounded=0;orthogonalLoop=1;jettySize=auto;html=1;exitX=1;exitY=0.5;exitDx=0;exitDy=0;fontSize=16;endArrow=classic;endFill=1;" edge="1" parent="1" source="nzrLz13nqQp0oSJpw0R1-54" target="nzrLz13nqQp0oSJpw0R1-59">
          <mxGeometry relative="1" as="geometry">
            <mxPoint x="720" y="320" as="targetPoint" />
          </mxGeometry>
        </mxCell>
        <mxCell id="nzrLz13nqQp0oSJpw0R1-56" style="edgeStyle=orthogonalEdgeStyle;rounded=0;orthogonalLoop=1;jettySize=auto;html=1;exitX=0;exitY=0.5;exitDx=0;exitDy=0;fontSize=16;endArrow=classic;endFill=1;" edge="1" parent="1" source="nzrLz13nqQp0oSJpw0R1-54" target="nzrLz13nqQp0oSJpw0R1-61">
          <mxGeometry relative="1" as="geometry">
            <mxPoint x="650.0000000000002" y="350" as="targetPoint" />
          </mxGeometry>
        </mxCell>
        <mxCell id="nzrLz13nqQp0oSJpw0R1-54" value="i &amp;gt; 0" style="rhombus;whiteSpace=wrap;html=1;rounded=1;fontSize=16;strokeWidth=1;" vertex="1" parent="1">
          <mxGeometry x="606.25" y="242" width="80" height="48" as="geometry" />
        </mxCell>
        <mxCell id="nzrLz13nqQp0oSJpw0R1-57" value="так" style="text;html=1;align=center;verticalAlign=middle;resizable=0;points=[];autosize=1;strokeColor=none;fillColor=none;fontSize=16;" vertex="1" parent="1">
          <mxGeometry x="680" y="242" width="40" height="20" as="geometry" />
        </mxCell>
        <mxCell id="nzrLz13nqQp0oSJpw0R1-58" value="ні" style="text;html=1;align=center;verticalAlign=middle;resizable=0;points=[];autosize=1;strokeColor=none;fillColor=none;fontSize=16;" vertex="1" parent="1">
          <mxGeometry x="590" y="242" width="30" height="20" as="geometry" />
        </mxCell>
        <mxCell id="nzrLz13nqQp0oSJpw0R1-64" style="edgeStyle=orthogonalEdgeStyle;rounded=0;orthogonalLoop=1;jettySize=auto;html=1;exitX=0.5;exitY=0;exitDx=0;exitDy=0;fontSize=16;endArrow=none;endFill=0;" edge="1" parent="1" source="nzrLz13nqQp0oSJpw0R1-59">
          <mxGeometry relative="1" as="geometry">
            <mxPoint x="650" y="597" as="targetPoint" />
            <mxPoint x="715" y="297" as="sourcePoint" />
            <Array as="points">
              <mxPoint x="715" y="370" />
              <mxPoint x="830" y="370" />
              <mxPoint x="830" y="530" />
              <mxPoint x="650" y="530" />
            </Array>
          </mxGeometry>
        </mxCell>
        <mxCell id="nzrLz13nqQp0oSJpw0R1-59" value="return (i - 1, j);" style="rounded=1;whiteSpace=wrap;html=1;fontSize=16;strokeWidth=1;" vertex="1" parent="1">
          <mxGeometry x="660" y="302" width="110" height="28" as="geometry" />
        </mxCell>
        <mxCell id="joO3hJPOTFWpYZf8FIq4-27" style="edgeStyle=orthogonalEdgeStyle;rounded=0;orthogonalLoop=1;jettySize=auto;html=1;exitX=0.5;exitY=1;exitDx=0;exitDy=0;entryX=0.5;entryY=0;entryDx=0;entryDy=0;fontSize=16;endArrow=classic;endFill=1;" edge="1" parent="1" source="nzrLz13nqQp0oSJpw0R1-61" target="nzrLz13nqQp0oSJpw0R1-65">
          <mxGeometry relative="1" as="geometry" />
        </mxCell>
        <mxCell id="joO3hJPOTFWpYZf8FIq4-28" style="edgeStyle=orthogonalEdgeStyle;rounded=0;orthogonalLoop=1;jettySize=auto;html=1;exitX=1;exitY=0.5;exitDx=0;exitDy=0;fontSize=16;endArrow=classic;endFill=1;" edge="1" parent="1" source="nzrLz13nqQp0oSJpw0R1-61" target="nzrLz13nqQp0oSJpw0R1-66">
          <mxGeometry relative="1" as="geometry">
            <Array as="points">
              <mxPoint x="780" y="392" />
              <mxPoint x="780" y="510" />
              <mxPoint x="650" y="510" />
            </Array>
          </mxGeometry>
        </mxCell>
        <mxCell id="nzrLz13nqQp0oSJpw0R1-61" value="x = j + 1; (x&amp;lt;M) &amp;amp;&amp;amp; !Check(x, K); x++" style="rhombus;whiteSpace=wrap;html=1;rounded=1;fontSize=16;strokeWidth=1;" vertex="1" parent="1">
          <mxGeometry x="486.25" y="367" width="320" height="50" as="geometry" />
        </mxCell>
        <mxCell id="nzrLz13nqQp0oSJpw0R1-72" style="edgeStyle=orthogonalEdgeStyle;rounded=0;orthogonalLoop=1;jettySize=auto;html=1;exitX=0;exitY=0.5;exitDx=0;exitDy=0;entryX=0;entryY=0.5;entryDx=0;entryDy=0;fontSize=16;endArrow=classic;endFill=1;" edge="1" parent="1" source="nzrLz13nqQp0oSJpw0R1-65" target="nzrLz13nqQp0oSJpw0R1-61">
          <mxGeometry relative="1" as="geometry" />
        </mxCell>
        <mxCell id="nzrLz13nqQp0oSJpw0R1-65" value="return (N - 1, x);" style="rounded=1;whiteSpace=wrap;html=1;fontSize=16;strokeWidth=1;" vertex="1" parent="1">
          <mxGeometry x="590" y="470" width="120" height="32" as="geometry" />
        </mxCell>
        <mxCell id="nzrLz13nqQp0oSJpw0R1-66" value="Кінець" style="ellipse;whiteSpace=wrap;html=1;rounded=1;fontSize=16;strokeWidth=1;" vertex="1" parent="1">
          <mxGeometry x="590" y="577" width="120" height="33" as="geometry" />
        </mxCell>
        <mxCell id="nzrLz13nqQp0oSJpw0R1-67" value="" style="endArrow=none;html=1;rounded=0;fontSize=16;" edge="1" parent="1">
          <mxGeometry width="50" height="50" relative="1" as="geometry">
            <mxPoint x="840" y="1240" as="sourcePoint" />
            <mxPoint x="840" as="targetPoint" />
          </mxGeometry>
        </mxCell>
        <mxCell id="nzrLz13nqQp0oSJpw0R1-68" value="" style="endArrow=none;html=1;rounded=0;fontSize=16;" edge="1" parent="1">
          <mxGeometry width="50" height="50" relative="1" as="geometry">
            <mxPoint x="440" y="640" as="sourcePoint" />
            <mxPoint x="840" y="640" as="targetPoint" />
          </mxGeometry>
        </mxCell>
        <mxCell id="nzrLz13nqQp0oSJpw0R1-69" value="static (long, long) Prev(long i, long j, long[,] A, long K)" style="text;html=1;align=center;verticalAlign=middle;resizable=0;points=[];autosize=1;strokeColor=none;fillColor=none;fontSize=16;" vertex="1" parent="1">
          <mxGeometry x="451.25" y="650" width="390" height="20" as="geometry" />
        </mxCell>
        <mxCell id="nzrLz13nqQp0oSJpw0R1-90" style="edgeStyle=orthogonalEdgeStyle;rounded=0;orthogonalLoop=1;jettySize=auto;html=1;exitX=0.5;exitY=1;exitDx=0;exitDy=0;fontSize=16;" edge="1" source="nzrLz13nqQp0oSJpw0R1-91" target="nzrLz13nqQp0oSJpw0R1-93" parent="1">
          <mxGeometry relative="1" as="geometry">
            <mxPoint x="648.55" y="760" as="targetPoint" />
            <Array as="points">
              <mxPoint x="648.55" y="760" />
              <mxPoint x="648.55" y="760" />
            </Array>
          </mxGeometry>
        </mxCell>
        <mxCell id="nzrLz13nqQp0oSJpw0R1-91" value="Початок" style="ellipse;whiteSpace=wrap;html=1;fontSize=16;strokeWidth=1;" vertex="1" parent="1">
          <mxGeometry x="605.55" y="690" width="85" height="40" as="geometry" />
        </mxCell>
        <mxCell id="nzrLz13nqQp0oSJpw0R1-92" style="edgeStyle=orthogonalEdgeStyle;rounded=0;orthogonalLoop=1;jettySize=auto;html=1;exitX=0.5;exitY=1;exitDx=0;exitDy=0;fontSize=16;endArrow=none;endFill=0;" edge="1" source="nzrLz13nqQp0oSJpw0R1-93" target="nzrLz13nqQp0oSJpw0R1-96" parent="1">
          <mxGeometry relative="1" as="geometry">
            <mxPoint x="648.8" y="850" as="targetPoint" />
          </mxGeometry>
        </mxCell>
        <mxCell id="nzrLz13nqQp0oSJpw0R1-93" value="&lt;div&gt;&lt;div&gt;long N = A.GetLength(0);&lt;/div&gt;&lt;div&gt;&amp;nbsp;long M = A.GetLength(1);&lt;/div&gt;&lt;/div&gt;&lt;div&gt;long x;&lt;br&gt;&lt;/div&gt;" style="shape=parallelogram;perimeter=parallelogramPerimeter;whiteSpace=wrap;html=1;fixedSize=1;fontSize=16;strokeWidth=1;rounded=1;" vertex="1" parent="1">
          <mxGeometry x="538.05" y="750" width="220" height="60" as="geometry" />
        </mxCell>
        <mxCell id="nzrLz13nqQp0oSJpw0R1-94" style="edgeStyle=orthogonalEdgeStyle;rounded=0;orthogonalLoop=1;jettySize=auto;html=1;exitX=1;exitY=0.5;exitDx=0;exitDy=0;fontSize=16;endArrow=classic;endFill=1;" edge="1" source="nzrLz13nqQp0oSJpw0R1-96" target="nzrLz13nqQp0oSJpw0R1-100" parent="1">
          <mxGeometry relative="1" as="geometry">
            <mxPoint x="721.8" y="920" as="targetPoint" />
          </mxGeometry>
        </mxCell>
        <mxCell id="nzrLz13nqQp0oSJpw0R1-95" style="edgeStyle=orthogonalEdgeStyle;rounded=0;orthogonalLoop=1;jettySize=auto;html=1;exitX=0;exitY=0.5;exitDx=0;exitDy=0;fontSize=16;endArrow=classic;endFill=1;" edge="1" source="nzrLz13nqQp0oSJpw0R1-96" target="nzrLz13nqQp0oSJpw0R1-102" parent="1">
          <mxGeometry relative="1" as="geometry">
            <mxPoint x="651.8000000000002" y="950" as="targetPoint" />
          </mxGeometry>
        </mxCell>
        <mxCell id="nzrLz13nqQp0oSJpw0R1-96" value="i &amp;gt; 0" style="rhombus;whiteSpace=wrap;html=1;rounded=1;fontSize=16;strokeWidth=1;" vertex="1" parent="1">
          <mxGeometry x="608.05" y="842" width="80" height="48" as="geometry" />
        </mxCell>
        <mxCell id="nzrLz13nqQp0oSJpw0R1-97" value="так" style="text;html=1;align=center;verticalAlign=middle;resizable=0;points=[];autosize=1;strokeColor=none;fillColor=none;fontSize=16;" vertex="1" parent="1">
          <mxGeometry x="681.8" y="842" width="40" height="20" as="geometry" />
        </mxCell>
        <mxCell id="nzrLz13nqQp0oSJpw0R1-98" value="ні" style="text;html=1;align=center;verticalAlign=middle;resizable=0;points=[];autosize=1;strokeColor=none;fillColor=none;fontSize=16;" vertex="1" parent="1">
          <mxGeometry x="591.8" y="842" width="30" height="20" as="geometry" />
        </mxCell>
        <mxCell id="nzrLz13nqQp0oSJpw0R1-99" style="edgeStyle=orthogonalEdgeStyle;rounded=0;orthogonalLoop=1;jettySize=auto;html=1;exitX=0.5;exitY=0;exitDx=0;exitDy=0;fontSize=16;endArrow=none;endFill=0;" edge="1" source="nzrLz13nqQp0oSJpw0R1-100" parent="1">
          <mxGeometry relative="1" as="geometry">
            <mxPoint x="651.8" y="1197" as="targetPoint" />
            <mxPoint x="716.8" y="897" as="sourcePoint" />
            <Array as="points">
              <mxPoint x="716.8" y="970" />
              <mxPoint x="831.8" y="970" />
              <mxPoint x="831.8" y="1130" />
              <mxPoint x="651.8" y="1130" />
            </Array>
          </mxGeometry>
        </mxCell>
        <mxCell id="nzrLz13nqQp0oSJpw0R1-100" value="return (i +1, j);" style="rounded=1;whiteSpace=wrap;html=1;fontSize=16;strokeWidth=1;" vertex="1" parent="1">
          <mxGeometry x="661.8" y="902" width="110" height="28" as="geometry" />
        </mxCell>
        <mxCell id="joO3hJPOTFWpYZf8FIq4-29" style="edgeStyle=orthogonalEdgeStyle;rounded=0;orthogonalLoop=1;jettySize=auto;html=1;exitX=0.5;exitY=1;exitDx=0;exitDy=0;fontSize=16;endArrow=classic;endFill=1;" edge="1" parent="1" source="nzrLz13nqQp0oSJpw0R1-102" target="nzrLz13nqQp0oSJpw0R1-105">
          <mxGeometry relative="1" as="geometry" />
        </mxCell>
        <mxCell id="joO3hJPOTFWpYZf8FIq4-30" style="edgeStyle=orthogonalEdgeStyle;rounded=0;orthogonalLoop=1;jettySize=auto;html=1;exitX=1;exitY=0.5;exitDx=0;exitDy=0;entryX=0.5;entryY=0;entryDx=0;entryDy=0;fontSize=16;endArrow=classic;endFill=1;" edge="1" parent="1" source="nzrLz13nqQp0oSJpw0R1-102" target="nzrLz13nqQp0oSJpw0R1-106">
          <mxGeometry relative="1" as="geometry">
            <Array as="points">
              <mxPoint x="810" y="992" />
              <mxPoint x="810" y="1110" />
              <mxPoint x="652" y="1110" />
            </Array>
          </mxGeometry>
        </mxCell>
        <mxCell id="nzrLz13nqQp0oSJpw0R1-102" value="x = j - 1; (x&amp;gt;=0) &amp;amp;&amp;amp; !Check(x, K); x--" style="rhombus;whiteSpace=wrap;html=1;rounded=1;fontSize=16;strokeWidth=1;" vertex="1" parent="1">
          <mxGeometry x="488.05" y="967" width="320" height="50" as="geometry" />
        </mxCell>
        <mxCell id="nzrLz13nqQp0oSJpw0R1-104" style="edgeStyle=orthogonalEdgeStyle;rounded=0;orthogonalLoop=1;jettySize=auto;html=1;exitX=0;exitY=0.5;exitDx=0;exitDy=0;entryX=0;entryY=0.5;entryDx=0;entryDy=0;fontSize=16;endArrow=classic;endFill=1;" edge="1" source="nzrLz13nqQp0oSJpw0R1-105" target="nzrLz13nqQp0oSJpw0R1-102" parent="1">
          <mxGeometry relative="1" as="geometry" />
        </mxCell>
        <mxCell id="nzrLz13nqQp0oSJpw0R1-105" value="return (0, x);" style="rounded=1;whiteSpace=wrap;html=1;fontSize=16;strokeWidth=1;" vertex="1" parent="1">
          <mxGeometry x="591.8" y="1070" width="120" height="32" as="geometry" />
        </mxCell>
        <mxCell id="nzrLz13nqQp0oSJpw0R1-106" value="Кінець" style="ellipse;whiteSpace=wrap;html=1;rounded=1;fontSize=16;strokeWidth=1;" vertex="1" parent="1">
          <mxGeometry x="591.8" y="1177" width="120" height="33" as="geometry" />
        </mxCell>
        <mxCell id="nzrLz13nqQp0oSJpw0R1-107" value="" style="endArrow=none;html=1;rounded=0;fontSize=16;" edge="1" parent="1">
          <mxGeometry width="50" height="50" relative="1" as="geometry">
            <mxPoint y="1240" as="sourcePoint" />
            <mxPoint x="840" y="1240" as="targetPoint" />
          </mxGeometry>
        </mxCell>
        <mxCell id="nzrLz13nqQp0oSJpw0R1-109" value="static (long, long) GetColumnInterval(long[,] A, long K)" style="text;html=1;align=center;verticalAlign=middle;resizable=0;points=[];autosize=1;strokeColor=none;fillColor=none;fontSize=16;" vertex="1" parent="1">
          <mxGeometry x="860" y="50" width="400" height="20" as="geometry" />
        </mxCell>
        <mxCell id="nzrLz13nqQp0oSJpw0R1-116" style="edgeStyle=orthogonalEdgeStyle;rounded=0;orthogonalLoop=1;jettySize=auto;html=1;exitX=0.5;exitY=1;exitDx=0;exitDy=0;entryX=0.5;entryY=0;entryDx=0;entryDy=0;fontSize=16;endArrow=classic;endFill=1;" edge="1" parent="1" source="nzrLz13nqQp0oSJpw0R1-111" target="nzrLz13nqQp0oSJpw0R1-112">
          <mxGeometry relative="1" as="geometry" />
        </mxCell>
        <mxCell id="nzrLz13nqQp0oSJpw0R1-111" value="Початок" style="ellipse;whiteSpace=wrap;html=1;fontSize=16;strokeWidth=1;" vertex="1" parent="1">
          <mxGeometry x="1048.5" y="85" width="85" height="40" as="geometry" />
        </mxCell>
        <mxCell id="nzrLz13nqQp0oSJpw0R1-114" style="edgeStyle=orthogonalEdgeStyle;rounded=0;orthogonalLoop=1;jettySize=auto;html=1;exitX=0.5;exitY=1;exitDx=0;exitDy=0;fontSize=16;endArrow=none;endFill=0;" edge="1" parent="1">
          <mxGeometry relative="1" as="geometry">
            <mxPoint x="1093.5" y="230" as="targetPoint" />
            <mxPoint x="1041" y="190" as="sourcePoint" />
          </mxGeometry>
        </mxCell>
        <mxCell id="nzrLz13nqQp0oSJpw0R1-112" value="&lt;div&gt;&lt;div&gt;&lt;div&gt;long from, to;&lt;/div&gt;&lt;div&gt;long M = A.GetLength(1);&lt;/div&gt;&lt;/div&gt;&lt;/div&gt;" style="shape=parallelogram;perimeter=parallelogramPerimeter;whiteSpace=wrap;html=1;fixedSize=1;fontSize=16;strokeWidth=1;rounded=1;" vertex="1" parent="1">
          <mxGeometry x="986" y="148" width="210" height="48" as="geometry" />
        </mxCell>
        <mxCell id="joO3hJPOTFWpYZf8FIq4-25" style="edgeStyle=orthogonalEdgeStyle;rounded=0;orthogonalLoop=1;jettySize=auto;html=1;exitX=0.5;exitY=1;exitDx=0;exitDy=0;entryX=0.5;entryY=0;entryDx=0;entryDy=0;fontSize=16;endArrow=classic;endFill=1;" edge="1" parent="1" source="nzrLz13nqQp0oSJpw0R1-115" target="joO3hJPOTFWpYZf8FIq4-2">
          <mxGeometry relative="1" as="geometry">
            <Array as="points">
              <mxPoint x="1092" y="311" />
              <mxPoint x="1096" y="311" />
            </Array>
          </mxGeometry>
        </mxCell>
        <mxCell id="joO3hJPOTFWpYZf8FIq4-26" style="edgeStyle=orthogonalEdgeStyle;rounded=0;orthogonalLoop=1;jettySize=auto;html=1;exitX=0;exitY=0.5;exitDx=0;exitDy=0;entryX=0.5;entryY=0;entryDx=0;entryDy=0;fontSize=16;endArrow=classic;endFill=1;" edge="1" parent="1" source="nzrLz13nqQp0oSJpw0R1-115" target="joO3hJPOTFWpYZf8FIq4-12">
          <mxGeometry relative="1" as="geometry">
            <Array as="points">
              <mxPoint x="872" y="260" />
              <mxPoint x="872" y="470" />
              <mxPoint x="1096" y="470" />
            </Array>
          </mxGeometry>
        </mxCell>
        <mxCell id="nzrLz13nqQp0oSJpw0R1-115" value="from = 0; from &amp;lt; M &amp;amp;&amp;amp; !Check(from, K); from++" style="rhombus;whiteSpace=wrap;html=1;rounded=1;fontSize=16;strokeWidth=1;" vertex="1" parent="1">
          <mxGeometry x="892" y="230" width="400" height="60" as="geometry" />
        </mxCell>
        <mxCell id="joO3hJPOTFWpYZf8FIq4-9" style="edgeStyle=orthogonalEdgeStyle;rounded=0;orthogonalLoop=1;jettySize=auto;html=1;exitX=0.5;exitY=1;exitDx=0;exitDy=0;entryX=0.5;entryY=0;entryDx=0;entryDy=0;fontSize=16;endArrow=classic;endFill=1;" edge="1" parent="1" source="joO3hJPOTFWpYZf8FIq4-2" target="joO3hJPOTFWpYZf8FIq4-4">
          <mxGeometry relative="1" as="geometry" />
        </mxCell>
        <mxCell id="joO3hJPOTFWpYZf8FIq4-10" style="edgeStyle=orthogonalEdgeStyle;rounded=0;orthogonalLoop=1;jettySize=auto;html=1;exitX=1;exitY=0.5;exitDx=0;exitDy=0;entryX=1;entryY=0.5;entryDx=0;entryDy=0;fontSize=16;endArrow=classic;endFill=1;" edge="1" parent="1" source="joO3hJPOTFWpYZf8FIq4-2" target="nzrLz13nqQp0oSJpw0R1-115">
          <mxGeometry relative="1" as="geometry">
            <Array as="points">
              <mxPoint x="1320" y="356" />
              <mxPoint x="1320" y="260" />
            </Array>
          </mxGeometry>
        </mxCell>
        <mxCell id="joO3hJPOTFWpYZf8FIq4-2" value="to = M - 1; to &amp;gt;= 0 &amp;amp;&amp;amp; !Check(to, K); to--" style="rhombus;whiteSpace=wrap;html=1;rounded=1;fontSize=16;strokeWidth=1;" vertex="1" parent="1">
          <mxGeometry x="912" y="332" width="368" height="48" as="geometry" />
        </mxCell>
        <mxCell id="joO3hJPOTFWpYZf8FIq4-24" style="edgeStyle=orthogonalEdgeStyle;rounded=0;orthogonalLoop=1;jettySize=auto;html=1;exitX=0;exitY=0.5;exitDx=0;exitDy=0;entryX=0;entryY=0.5;entryDx=0;entryDy=0;fontSize=16;endArrow=classic;endFill=1;" edge="1" parent="1" source="joO3hJPOTFWpYZf8FIq4-4" target="joO3hJPOTFWpYZf8FIq4-2">
          <mxGeometry relative="1" as="geometry" />
        </mxCell>
        <mxCell id="joO3hJPOTFWpYZf8FIq4-4" value="&amp;nbsp;return (from, to);" style="rounded=1;whiteSpace=wrap;html=1;fontSize=16;strokeWidth=1;" vertex="1" parent="1">
          <mxGeometry x="1031" y="427" width="130" height="30" as="geometry" />
        </mxCell>
        <mxCell id="joO3hJPOTFWpYZf8FIq4-12" value="кінець" style="ellipse;whiteSpace=wrap;html=1;rounded=1;fontSize=16;strokeWidth=1;" vertex="1" parent="1">
          <mxGeometry x="1036" y="492" width="120" height="38" as="geometry" />
        </mxCell>
        <mxCell id="joO3hJPOTFWpYZf8FIq4-13" value="" style="endArrow=none;html=1;rounded=0;fontSize=16;" edge="1" parent="1">
          <mxGeometry width="50" height="50" relative="1" as="geometry">
            <mxPoint x="1360" y="560" as="sourcePoint" />
            <mxPoint x="1360" as="targetPoint" />
          </mxGeometry>
        </mxCell>
        <mxCell id="joO3hJPOTFWpYZf8FIq4-14" value="" style="endArrow=none;html=1;rounded=0;fontSize=16;" edge="1" parent="1">
          <mxGeometry width="50" height="50" relative="1" as="geometry">
            <mxPoint x="840" y="560" as="sourcePoint" />
            <mxPoint x="1360" y="560" as="targetPoint" />
          </mxGeometry>
        </mxCell>
        <mxCell id="joO3hJPOTFWpYZf8FIq4-15" value="static Boolean Less(long i_1, long j_1, long i_2, long j_2)" style="text;html=1;align=center;verticalAlign=middle;resizable=0;points=[];autosize=1;strokeColor=none;fillColor=none;fontSize=16;" vertex="1" parent="1">
          <mxGeometry x="891" y="580" width="420" height="20" as="geometry" />
        </mxCell>
        <mxCell id="joO3hJPOTFWpYZf8FIq4-18" style="edgeStyle=orthogonalEdgeStyle;rounded=0;orthogonalLoop=1;jettySize=auto;html=1;exitX=0.5;exitY=1;exitDx=0;exitDy=0;fontSize=16;endArrow=classic;endFill=1;" edge="1" parent="1" source="joO3hJPOTFWpYZf8FIq4-17" target="joO3hJPOTFWpYZf8FIq4-19">
          <mxGeometry relative="1" as="geometry">
            <mxPoint x="1096.3333333333335" y="700" as="targetPoint" />
          </mxGeometry>
        </mxCell>
        <mxCell id="joO3hJPOTFWpYZf8FIq4-17" value="Початок" style="ellipse;whiteSpace=wrap;html=1;fontSize=16;strokeWidth=1;" vertex="1" parent="1">
          <mxGeometry x="1053.5" y="630" width="85" height="40" as="geometry" />
        </mxCell>
        <mxCell id="joO3hJPOTFWpYZf8FIq4-20" style="edgeStyle=orthogonalEdgeStyle;rounded=0;orthogonalLoop=1;jettySize=auto;html=1;exitX=0.5;exitY=1;exitDx=0;exitDy=0;fontSize=16;endArrow=classic;endFill=1;" edge="1" parent="1" source="joO3hJPOTFWpYZf8FIq4-19" target="joO3hJPOTFWpYZf8FIq4-21">
          <mxGeometry relative="1" as="geometry">
            <mxPoint x="1096.3333333333335" y="830.0000000000002" as="targetPoint" />
          </mxGeometry>
        </mxCell>
        <mxCell id="joO3hJPOTFWpYZf8FIq4-19" value="return (j_1 &amp;lt; j_2) || (j_1 == j_2 &amp;amp;&amp;amp; i_1 &amp;gt; i_2);" style="rounded=1;whiteSpace=wrap;html=1;fontSize=16;strokeWidth=1;" vertex="1" parent="1">
          <mxGeometry x="920" y="710" width="350" height="60" as="geometry" />
        </mxCell>
        <mxCell id="joO3hJPOTFWpYZf8FIq4-21" value="кінець" style="ellipse;whiteSpace=wrap;html=1;rounded=1;fontSize=16;strokeWidth=1;" vertex="1" parent="1">
          <mxGeometry x="1036" y="802" width="120" height="40" as="geometry" />
        </mxCell>
        <mxCell id="joO3hJPOTFWpYZf8FIq4-22" value="" style="endArrow=none;html=1;rounded=0;fontSize=16;" edge="1" parent="1">
          <mxGeometry width="50" height="50" relative="1" as="geometry">
            <mxPoint x="1360" y="880" as="sourcePoint" />
            <mxPoint x="1360" y="560" as="targetPoint" />
          </mxGeometry>
        </mxCell>
        <mxCell id="joO3hJPOTFWpYZf8FIq4-23" value="" style="endArrow=none;html=1;rounded=0;fontSize=16;" edge="1" parent="1">
          <mxGeometry width="50" height="50" relative="1" as="geometry">
            <mxPoint x="840" y="880" as="sourcePoint" />
            <mxPoint x="1360" y="880" as="targetPoint" />
          </mxGeometry>
        </mxCell>
        <mxCell id="joO3hJPOTFWpYZf8FIq4-31" style="edgeStyle=orthogonalEdgeStyle;rounded=0;orthogonalLoop=1;jettySize=auto;html=1;exitX=0.5;exitY=1;exitDx=0;exitDy=0;fontSize=16;endArrow=classic;endFill=1;" edge="1" parent="1">
          <mxGeometry relative="1" as="geometry">
            <mxPoint x="1096" y="890" as="sourcePoint" />
            <mxPoint x="1096" y="890" as="targetPoint" />
          </mxGeometry>
        </mxCell>
        <mxCell id="joO3hJPOTFWpYZf8FIq4-33" style="edgeStyle=orthogonalEdgeStyle;rounded=0;orthogonalLoop=1;jettySize=auto;html=1;exitX=0.5;exitY=1;exitDx=0;exitDy=0;fontSize=16;endArrow=classic;endFill=1;entryX=0.522;entryY=0.024;entryDx=0;entryDy=0;entryPerimeter=0;" edge="1" source="joO3hJPOTFWpYZf8FIq4-34" parent="1" target="joO3hJPOTFWpYZf8FIq4-40">
          <mxGeometry relative="1" as="geometry">
            <mxPoint x="1090" y="1030" as="targetPoint" />
          </mxGeometry>
        </mxCell>
        <mxCell id="joO3hJPOTFWpYZf8FIq4-34" value="Початок" style="ellipse;whiteSpace=wrap;html=1;fontSize=16;strokeWidth=1;" vertex="1" parent="1">
          <mxGeometry x="1048.5" y="950" width="85" height="40" as="geometry" />
        </mxCell>
        <mxCell id="joO3hJPOTFWpYZf8FIq4-37" value="static void Sort(long[,] A, long K)" style="text;html=1;align=center;verticalAlign=middle;resizable=0;points=[];autosize=1;strokeColor=none;fillColor=none;fontSize=16;" vertex="1" parent="1">
          <mxGeometry x="880" y="902" width="240" height="20" as="geometry" />
        </mxCell>
        <mxCell id="joO3hJPOTFWpYZf8FIq4-43" style="edgeStyle=orthogonalEdgeStyle;rounded=0;orthogonalLoop=1;jettySize=auto;html=1;exitX=0.5;exitY=1;exitDx=0;exitDy=0;fontSize=16;endArrow=none;endFill=0;" edge="1" parent="1" source="joO3hJPOTFWpYZf8FIq4-40" target="joO3hJPOTFWpYZf8FIq4-44">
          <mxGeometry relative="1" as="geometry">
            <mxPoint x="1085" y="1200" as="targetPoint" />
          </mxGeometry>
        </mxCell>
        <mxCell id="joO3hJPOTFWpYZf8FIq4-40" value="&lt;div&gt;long N = A.GetLength(0);&lt;/div&gt;&lt;div&gt;long M = A.GetLength(1);&lt;/div&gt;&lt;div&gt;&amp;nbsp; &amp;nbsp; &amp;nbsp;(long from, long to) = GetColumnInterval(A, K);&lt;/div&gt;&lt;div&gt;&amp;nbsp; &amp;nbsp; &amp;nbsp; &amp;nbsp; &amp;nbsp; &amp;nbsp; long i, j, q, z, a, b, t;&lt;/div&gt;&lt;div&gt;&lt;span&gt;q = 0;&lt;/span&gt;&lt;/div&gt;&lt;div&gt;&amp;nbsp; z = to;&lt;/div&gt;" style="shape=parallelogram;perimeter=parallelogramPerimeter;whiteSpace=wrap;html=1;fixedSize=1;fontSize=16;strokeWidth=1;rounded=1;" vertex="1" parent="1">
          <mxGeometry x="900" y="1021" width="370" height="130" as="geometry" />
        </mxCell>
        <mxCell id="joO3hJPOTFWpYZf8FIq4-45" style="edgeStyle=orthogonalEdgeStyle;rounded=0;orthogonalLoop=1;jettySize=auto;html=1;exitX=0.5;exitY=1;exitDx=0;exitDy=0;fontSize=16;endArrow=classic;endFill=1;" edge="1" parent="1" source="joO3hJPOTFWpYZf8FIq4-44" target="joO3hJPOTFWpYZf8FIq4-46">
          <mxGeometry relative="1" as="geometry">
            <mxPoint x="1085.4705882352941" y="1280" as="targetPoint" />
          </mxGeometry>
        </mxCell>
        <mxCell id="joO3hJPOTFWpYZf8FIq4-62" style="edgeStyle=orthogonalEdgeStyle;rounded=0;orthogonalLoop=1;jettySize=auto;html=1;exitX=0;exitY=0.5;exitDx=0;exitDy=0;fontSize=16;endArrow=classicThin;endFill=1;" edge="1" parent="1" source="joO3hJPOTFWpYZf8FIq4-44" target="joO3hJPOTFWpYZf8FIq4-65">
          <mxGeometry relative="1" as="geometry">
            <mxPoint x="1090" y="1740" as="targetPoint" />
            <Array as="points">
              <mxPoint x="890" y="1212" />
              <mxPoint x="890" y="1690" />
              <mxPoint x="1090" y="1690" />
            </Array>
          </mxGeometry>
        </mxCell>
        <mxCell id="joO3hJPOTFWpYZf8FIq4-44" value="Less(N - 1, from, q, z)" style="rhombus;whiteSpace=wrap;html=1;rounded=1;fontSize=16;strokeWidth=1;" vertex="1" parent="1">
          <mxGeometry x="978.75" y="1184" width="212.5" height="56" as="geometry" />
        </mxCell>
        <mxCell id="joO3hJPOTFWpYZf8FIq4-47" style="edgeStyle=orthogonalEdgeStyle;rounded=0;orthogonalLoop=1;jettySize=auto;html=1;exitX=0.5;exitY=1;exitDx=0;exitDy=0;fontSize=16;endArrow=none;endFill=0;" edge="1" parent="1" source="joO3hJPOTFWpYZf8FIq4-46" target="joO3hJPOTFWpYZf8FIq4-48">
          <mxGeometry relative="1" as="geometry">
            <mxPoint x="1085.4705882352941" y="1350" as="targetPoint" />
          </mxGeometry>
        </mxCell>
        <mxCell id="joO3hJPOTFWpYZf8FIq4-46" value="&lt;div&gt;i = N - 1;&lt;/div&gt;&lt;div&gt;j = from;&lt;/div&gt;" style="rounded=1;whiteSpace=wrap;html=1;fontSize=16;strokeWidth=1;" vertex="1" parent="1">
          <mxGeometry x="1027.5" y="1270" width="115" height="40" as="geometry" />
        </mxCell>
        <mxCell id="joO3hJPOTFWpYZf8FIq4-49" style="edgeStyle=orthogonalEdgeStyle;rounded=0;orthogonalLoop=1;jettySize=auto;html=1;exitX=0.5;exitY=1;exitDx=0;exitDy=0;fontSize=16;endArrow=classic;endFill=1;" edge="1" parent="1" source="joO3hJPOTFWpYZf8FIq4-48" target="joO3hJPOTFWpYZf8FIq4-50">
          <mxGeometry relative="1" as="geometry">
            <mxPoint x="1085.4705882352941" y="1410" as="targetPoint" />
          </mxGeometry>
        </mxCell>
        <mxCell id="joO3hJPOTFWpYZf8FIq4-61" style="edgeStyle=orthogonalEdgeStyle;rounded=0;orthogonalLoop=1;jettySize=auto;html=1;exitX=1;exitY=0.5;exitDx=0;exitDy=0;entryX=1;entryY=0.5;entryDx=0;entryDy=0;fontSize=16;endArrow=blockThin;endFill=1;" edge="1" parent="1" source="joO3hJPOTFWpYZf8FIq4-48" target="joO3hJPOTFWpYZf8FIq4-44">
          <mxGeometry relative="1" as="geometry" />
        </mxCell>
        <mxCell id="joO3hJPOTFWpYZf8FIq4-48" value="Less(i, j, q, z)" style="rhombus;whiteSpace=wrap;html=1;rounded=1;fontSize=16;strokeWidth=1;" vertex="1" parent="1">
          <mxGeometry x="1012.5" y="1340" width="145" height="40" as="geometry" />
        </mxCell>
        <mxCell id="joO3hJPOTFWpYZf8FIq4-51" style="edgeStyle=orthogonalEdgeStyle;rounded=0;orthogonalLoop=1;jettySize=auto;html=1;exitX=0.5;exitY=1;exitDx=0;exitDy=0;fontSize=16;endArrow=none;endFill=0;" edge="1" parent="1" source="joO3hJPOTFWpYZf8FIq4-50" target="joO3hJPOTFWpYZf8FIq4-52">
          <mxGeometry relative="1" as="geometry">
            <mxPoint x="1085.4705882352941" y="1470" as="targetPoint" />
          </mxGeometry>
        </mxCell>
        <mxCell id="joO3hJPOTFWpYZf8FIq4-50" value="(a, b) = Next(i, j, A, K);" style="rounded=1;whiteSpace=wrap;html=1;fontSize=16;strokeWidth=1;" vertex="1" parent="1">
          <mxGeometry x="992.5" y="1420" width="185" height="20" as="geometry" />
        </mxCell>
        <mxCell id="joO3hJPOTFWpYZf8FIq4-53" style="edgeStyle=orthogonalEdgeStyle;rounded=0;orthogonalLoop=1;jettySize=auto;html=1;exitX=1;exitY=0.5;exitDx=0;exitDy=0;fontSize=16;endArrow=classic;endFill=1;" edge="1" parent="1" source="joO3hJPOTFWpYZf8FIq4-52" target="joO3hJPOTFWpYZf8FIq4-54">
          <mxGeometry relative="1" as="geometry">
            <mxPoint x="1200" y="1550" as="targetPoint" />
          </mxGeometry>
        </mxCell>
        <mxCell id="joO3hJPOTFWpYZf8FIq4-56" style="edgeStyle=orthogonalEdgeStyle;rounded=0;orthogonalLoop=1;jettySize=auto;html=1;exitX=0;exitY=0.5;exitDx=0;exitDy=0;fontSize=16;endArrow=classic;endFill=1;" edge="1" parent="1" source="joO3hJPOTFWpYZf8FIq4-52" target="joO3hJPOTFWpYZf8FIq4-57">
          <mxGeometry relative="1" as="geometry">
            <mxPoint x="970" y="1540" as="targetPoint" />
          </mxGeometry>
        </mxCell>
        <mxCell id="joO3hJPOTFWpYZf8FIq4-52" value="if (A[i, j] &amp;gt; A[a, b])" style="rhombus;whiteSpace=wrap;html=1;rounded=1;fontSize=16;strokeWidth=1;" vertex="1" parent="1">
          <mxGeometry x="1002.5" y="1470" width="165" height="60" as="geometry" />
        </mxCell>
        <mxCell id="joO3hJPOTFWpYZf8FIq4-60" style="edgeStyle=orthogonalEdgeStyle;rounded=0;orthogonalLoop=1;jettySize=auto;html=1;exitX=0.5;exitY=1;exitDx=0;exitDy=0;fontSize=16;endArrow=none;endFill=0;" edge="1" parent="1" source="joO3hJPOTFWpYZf8FIq4-54">
          <mxGeometry relative="1" as="geometry">
            <mxPoint x="990" y="1620" as="targetPoint" />
            <Array as="points">
              <mxPoint x="1194" y="1620" />
              <mxPoint x="1090" y="1620" />
            </Array>
          </mxGeometry>
        </mxCell>
        <mxCell id="joO3hJPOTFWpYZf8FIq4-54" value="&lt;div&gt;t = A[i, j];&lt;span&gt;&amp;nbsp; &amp;nbsp; &amp;nbsp; &amp;nbsp; &amp;nbsp; &amp;nbsp;A[i, j] = A[a, b];&lt;/span&gt;&lt;/div&gt;&lt;div&gt;&lt;span&gt;A[a, b] = t;&lt;/span&gt;&lt;/div&gt;" style="rounded=1;whiteSpace=wrap;html=1;fontSize=16;strokeWidth=1;" vertex="1" parent="1">
          <mxGeometry x="1138.5" y="1550" width="111.5" height="60" as="geometry" />
        </mxCell>
        <mxCell id="joO3hJPOTFWpYZf8FIq4-55" value="Так" style="text;html=1;align=center;verticalAlign=middle;resizable=0;points=[];autosize=1;strokeColor=none;fillColor=none;fontSize=16;" vertex="1" parent="1">
          <mxGeometry x="1170" y="1470" width="40" height="20" as="geometry" />
        </mxCell>
        <mxCell id="joO3hJPOTFWpYZf8FIq4-59" style="edgeStyle=orthogonalEdgeStyle;rounded=0;orthogonalLoop=1;jettySize=auto;html=1;exitX=0.5;exitY=1;exitDx=0;exitDy=0;fontSize=16;endArrow=classic;endFill=1;" edge="1" parent="1" source="joO3hJPOTFWpYZf8FIq4-57" target="joO3hJPOTFWpYZf8FIq4-63">
          <mxGeometry relative="1" as="geometry">
            <mxPoint x="1100" y="1660" as="targetPoint" />
            <Array as="points">
              <mxPoint x="991" y="1620" />
              <mxPoint x="1100" y="1620" />
            </Array>
          </mxGeometry>
        </mxCell>
        <mxCell id="joO3hJPOTFWpYZf8FIq4-57" value="&lt;div&gt;i = a;&lt;/div&gt;&lt;div&gt;j = b;&lt;/div&gt;" style="rounded=1;whiteSpace=wrap;html=1;fontSize=16;strokeWidth=1;" vertex="1" parent="1">
          <mxGeometry x="946" y="1560" width="90" height="40" as="geometry" />
        </mxCell>
        <mxCell id="joO3hJPOTFWpYZf8FIq4-58" value="ні" style="text;html=1;align=center;verticalAlign=middle;resizable=0;points=[];autosize=1;strokeColor=none;fillColor=none;fontSize=16;" vertex="1" parent="1">
          <mxGeometry x="965" y="1480" width="30" height="20" as="geometry" />
        </mxCell>
        <mxCell id="joO3hJPOTFWpYZf8FIq4-64" style="edgeStyle=orthogonalEdgeStyle;rounded=0;orthogonalLoop=1;jettySize=auto;html=1;exitX=0;exitY=0.5;exitDx=0;exitDy=0;entryX=0;entryY=0.5;entryDx=0;entryDy=0;fontSize=16;endArrow=blockThin;endFill=1;" edge="1" parent="1" source="joO3hJPOTFWpYZf8FIq4-63" target="joO3hJPOTFWpYZf8FIq4-48">
          <mxGeometry relative="1" as="geometry">
            <Array as="points">
              <mxPoint x="920" y="1660" />
              <mxPoint x="920" y="1360" />
            </Array>
          </mxGeometry>
        </mxCell>
        <mxCell id="joO3hJPOTFWpYZf8FIq4-63" value="(q, z) = Prev(q, z, A, K);" style="rounded=1;whiteSpace=wrap;html=1;fontSize=16;strokeWidth=1;" vertex="1" parent="1">
          <mxGeometry x="1041" y="1640" width="120" height="40" as="geometry" />
        </mxCell>
        <mxCell id="joO3hJPOTFWpYZf8FIq4-65" value="Кінець" style="ellipse;whiteSpace=wrap;html=1;rounded=1;fontSize=16;strokeWidth=1;" vertex="1" parent="1">
          <mxGeometry x="1031" y="1714" width="120" height="46" as="geometry" />
        </mxCell>
        <mxCell id="joO3hJPOTFWpYZf8FIq4-66" value="" style="endArrow=none;html=1;rounded=0;fontSize=16;" edge="1" parent="1">
          <mxGeometry width="50" height="50" relative="1" as="geometry">
            <mxPoint x="1360" y="1800" as="sourcePoint" />
            <mxPoint x="1360" y="880" as="targetPoint" />
          </mxGeometry>
        </mxCell>
        <mxCell id="joO3hJPOTFWpYZf8FIq4-67" value="" style="endArrow=none;html=1;rounded=0;fontSize=16;" edge="1" parent="1">
          <mxGeometry width="50" height="50" relative="1" as="geometry">
            <mxPoint x="840" y="1800" as="sourcePoint" />
            <mxPoint x="1360" y="1800" as="targetPoint" />
          </mxGeometry>
        </mxCell>
        <mxCell id="joO3hJPOTFWpYZf8FIq4-68" value="" style="endArrow=none;html=1;rounded=0;fontSize=16;" edge="1" parent="1">
          <mxGeometry width="50" height="50" relative="1" as="geometry">
            <mxPoint x="840" y="1800" as="sourcePoint" />
            <mxPoint x="840" y="1240" as="targetPoint" />
          </mxGeometry>
        </mxCell>
        <mxCell id="joO3hJPOTFWpYZf8FIq4-69" value="static void Print(long[,] A, long K)" style="text;html=1;align=center;verticalAlign=middle;resizable=0;points=[];autosize=1;strokeColor=none;fillColor=none;fontSize=16;" vertex="1" parent="1">
          <mxGeometry x="20" y="1270" width="250" height="20" as="geometry" />
        </mxCell>
        <mxCell id="joO3hJPOTFWpYZf8FIq4-70" style="edgeStyle=orthogonalEdgeStyle;rounded=0;orthogonalLoop=1;jettySize=auto;html=1;exitX=0.5;exitY=1;exitDx=0;exitDy=0;fontSize=16;" edge="1" source="joO3hJPOTFWpYZf8FIq4-71" target="joO3hJPOTFWpYZf8FIq4-72" parent="1">
          <mxGeometry relative="1" as="geometry">
            <mxPoint x="235.49999999999994" y="1380" as="targetPoint" />
            <Array as="points">
              <mxPoint x="235.49999999999994" y="1380" />
              <mxPoint x="235.49999999999994" y="1380" />
            </Array>
          </mxGeometry>
        </mxCell>
        <mxCell id="joO3hJPOTFWpYZf8FIq4-71" value="Початок" style="ellipse;whiteSpace=wrap;html=1;fontSize=16;strokeWidth=1;" vertex="1" parent="1">
          <mxGeometry x="192.49999999999994" y="1310" width="85" height="40" as="geometry" />
        </mxCell>
        <mxCell id="joO3hJPOTFWpYZf8FIq4-90" style="edgeStyle=orthogonalEdgeStyle;rounded=0;orthogonalLoop=1;jettySize=auto;html=1;exitX=0.5;exitY=1;exitDx=0;exitDy=0;fontSize=16;endArrow=none;endFill=0;" edge="1" parent="1" source="joO3hJPOTFWpYZf8FIq4-72" target="joO3hJPOTFWpYZf8FIq4-91">
          <mxGeometry relative="1" as="geometry">
            <mxPoint x="234.81818181818176" y="1470" as="targetPoint" />
          </mxGeometry>
        </mxCell>
        <mxCell id="joO3hJPOTFWpYZf8FIq4-72" value="&lt;div&gt;&lt;div&gt;long N = A.GetLength(0);&lt;/div&gt;&lt;div&gt;&amp;nbsp;long M = A.GetLength(1);&lt;/div&gt;&lt;/div&gt;&lt;div&gt;long t;&lt;br&gt;&lt;/div&gt;" style="shape=parallelogram;perimeter=parallelogramPerimeter;whiteSpace=wrap;html=1;fixedSize=1;fontSize=16;strokeWidth=1;rounded=1;" vertex="1" parent="1">
          <mxGeometry x="124.99999999999994" y="1370" width="220" height="60" as="geometry" />
        </mxCell>
        <mxCell id="joO3hJPOTFWpYZf8FIq4-75" style="edgeStyle=orthogonalEdgeStyle;rounded=0;orthogonalLoop=1;jettySize=auto;html=1;exitX=0.5;exitY=1;exitDx=0;exitDy=0;fontSize=16;endArrow=classic;endFill=1;" edge="1" parent="1" source="joO3hJPOTFWpYZf8FIq4-74" target="joO3hJPOTFWpYZf8FIq4-76">
          <mxGeometry relative="1" as="geometry">
            <mxPoint x="234.71428571428567" y="1598" as="targetPoint" />
          </mxGeometry>
        </mxCell>
        <mxCell id="joO3hJPOTFWpYZf8FIq4-95" style="edgeStyle=orthogonalEdgeStyle;rounded=0;orthogonalLoop=1;jettySize=auto;html=1;exitX=1;exitY=0.5;exitDx=0;exitDy=0;fontSize=16;endArrow=classic;endFill=1;" edge="1" parent="1" source="joO3hJPOTFWpYZf8FIq4-74" target="joO3hJPOTFWpYZf8FIq4-96">
          <mxGeometry relative="1" as="geometry">
            <mxPoint x="240" y="1930" as="targetPoint" />
            <Array as="points">
              <mxPoint x="460" y="1538" />
              <mxPoint x="460" y="1900" />
              <mxPoint x="240" y="1900" />
            </Array>
          </mxGeometry>
        </mxCell>
        <mxCell id="joO3hJPOTFWpYZf8FIq4-74" value="long i = 0; i &amp;lt; N; i++" style="rhombus;whiteSpace=wrap;html=1;rounded=1;fontSize=16;strokeWidth=1;" vertex="1" parent="1">
          <mxGeometry x="147.5" y="1513" width="175" height="50" as="geometry" />
        </mxCell>
        <mxCell id="joO3hJPOTFWpYZf8FIq4-77" style="edgeStyle=orthogonalEdgeStyle;rounded=0;orthogonalLoop=1;jettySize=auto;html=1;exitX=0.5;exitY=1;exitDx=0;exitDy=0;fontSize=16;endArrow=none;endFill=0;" edge="1" parent="1" source="joO3hJPOTFWpYZf8FIq4-76" target="joO3hJPOTFWpYZf8FIq4-78">
          <mxGeometry relative="1" as="geometry">
            <mxPoint x="234.71428571428567" y="1658" as="targetPoint" />
          </mxGeometry>
        </mxCell>
        <mxCell id="joO3hJPOTFWpYZf8FIq4-76" value="t = A[i, j];" style="rounded=1;whiteSpace=wrap;html=1;fontSize=16;strokeWidth=1;" vertex="1" parent="1">
          <mxGeometry x="200" y="1598" width="70" height="30" as="geometry" />
        </mxCell>
        <mxCell id="joO3hJPOTFWpYZf8FIq4-79" style="edgeStyle=orthogonalEdgeStyle;rounded=0;orthogonalLoop=1;jettySize=auto;html=1;exitX=1;exitY=0.5;exitDx=0;exitDy=0;fontSize=16;endArrow=classic;endFill=1;" edge="1" parent="1" source="joO3hJPOTFWpYZf8FIq4-78" target="joO3hJPOTFWpYZf8FIq4-81">
          <mxGeometry relative="1" as="geometry">
            <mxPoint x="320" y="1728" as="targetPoint" />
            <Array as="points">
              <mxPoint x="320" y="1673" />
              <mxPoint x="320" y="1728" />
            </Array>
          </mxGeometry>
        </mxCell>
        <mxCell id="joO3hJPOTFWpYZf8FIq4-80" style="edgeStyle=orthogonalEdgeStyle;rounded=0;orthogonalLoop=1;jettySize=auto;html=1;exitX=0;exitY=0.5;exitDx=0;exitDy=0;fontSize=16;endArrow=classic;endFill=1;" edge="1" parent="1" source="joO3hJPOTFWpYZf8FIq4-78" target="joO3hJPOTFWpYZf8FIq4-82">
          <mxGeometry relative="1" as="geometry">
            <mxPoint x="150" y="1728" as="targetPoint" />
          </mxGeometry>
        </mxCell>
        <mxCell id="joO3hJPOTFWpYZf8FIq4-78" value="Check(j, K)" style="rhombus;whiteSpace=wrap;html=1;rounded=1;fontSize=16;strokeWidth=1;" vertex="1" parent="1">
          <mxGeometry x="172.5" y="1648" width="125" height="50" as="geometry" />
        </mxCell>
        <mxCell id="joO3hJPOTFWpYZf8FIq4-86" style="edgeStyle=orthogonalEdgeStyle;rounded=0;orthogonalLoop=1;jettySize=auto;html=1;exitX=0.5;exitY=1;exitDx=0;exitDy=0;fontSize=16;endArrow=classic;endFill=1;" edge="1" parent="1" source="joO3hJPOTFWpYZf8FIq4-81" target="joO3hJPOTFWpYZf8FIq4-87">
          <mxGeometry relative="1" as="geometry">
            <mxPoint x="240" y="1848" as="targetPoint" />
          </mxGeometry>
        </mxCell>
        <mxCell id="joO3hJPOTFWpYZf8FIq4-81" value="&amp;nbsp;Console.ForegroundColor = ConsoleColor.Green;" style="rounded=1;whiteSpace=wrap;html=1;fontSize=16;strokeWidth=1;" vertex="1" parent="1">
          <mxGeometry x="270" y="1728" width="190" height="60" as="geometry" />
        </mxCell>
        <mxCell id="joO3hJPOTFWpYZf8FIq4-85" style="edgeStyle=orthogonalEdgeStyle;rounded=0;orthogonalLoop=1;jettySize=auto;html=1;exitX=0.5;exitY=1;exitDx=0;exitDy=0;fontSize=16;endArrow=classic;endFill=1;" edge="1" parent="1" source="joO3hJPOTFWpYZf8FIq4-82">
          <mxGeometry relative="1" as="geometry">
            <mxPoint x="240" y="1848" as="targetPoint" />
          </mxGeometry>
        </mxCell>
        <mxCell id="joO3hJPOTFWpYZf8FIq4-82" value="Console.ForegroundColor = ConsoleColor.White;" style="rounded=1;whiteSpace=wrap;html=1;fontSize=16;strokeWidth=1;" vertex="1" parent="1">
          <mxGeometry x="52" y="1723" width="188" height="65" as="geometry" />
        </mxCell>
        <mxCell id="joO3hJPOTFWpYZf8FIq4-83" value="так" style="text;html=1;align=center;verticalAlign=middle;resizable=0;points=[];autosize=1;strokeColor=none;fillColor=none;fontSize=16;" vertex="1" parent="1">
          <mxGeometry x="290" y="1658" width="40" height="20" as="geometry" />
        </mxCell>
        <mxCell id="joO3hJPOTFWpYZf8FIq4-84" value="ні" style="text;html=1;align=center;verticalAlign=middle;resizable=0;points=[];autosize=1;strokeColor=none;fillColor=none;fontSize=16;" vertex="1" parent="1">
          <mxGeometry x="135" y="1658" width="30" height="20" as="geometry" />
        </mxCell>
        <mxCell id="joO3hJPOTFWpYZf8FIq4-87" value="Write(t + &quot;\t&quot;);" style="rounded=1;whiteSpace=wrap;html=1;fontSize=16;strokeWidth=1;" vertex="1" parent="1">
          <mxGeometry x="180.07" y="1848" width="120" height="40" as="geometry" />
        </mxCell>
        <mxCell id="joO3hJPOTFWpYZf8FIq4-92" style="edgeStyle=orthogonalEdgeStyle;rounded=0;orthogonalLoop=1;jettySize=auto;html=1;exitX=0.5;exitY=1;exitDx=0;exitDy=0;entryX=0.5;entryY=0;entryDx=0;entryDy=0;fontSize=16;endArrow=classic;endFill=1;" edge="1" parent="1" source="joO3hJPOTFWpYZf8FIq4-91" target="joO3hJPOTFWpYZf8FIq4-74">
          <mxGeometry relative="1" as="geometry" />
        </mxCell>
        <mxCell id="joO3hJPOTFWpYZf8FIq4-98" style="edgeStyle=orthogonalEdgeStyle;rounded=0;orthogonalLoop=1;jettySize=auto;html=1;exitX=1;exitY=0.5;exitDx=0;exitDy=0;fontSize=16;endArrow=classic;endFill=1;" edge="1" parent="1" source="joO3hJPOTFWpYZf8FIq4-91" target="joO3hJPOTFWpYZf8FIq4-99">
          <mxGeometry relative="1" as="geometry">
            <mxPoint x="240" y="2020" as="targetPoint" />
            <Array as="points">
              <mxPoint x="480" y="1473" />
              <mxPoint x="480" y="1970" />
              <mxPoint x="240" y="1970" />
            </Array>
          </mxGeometry>
        </mxCell>
        <mxCell id="joO3hJPOTFWpYZf8FIq4-91" value="long j = 0; j &amp;lt; M; j++" style="rhombus;whiteSpace=wrap;html=1;rounded=1;fontSize=16;strokeWidth=1;" vertex="1" parent="1">
          <mxGeometry x="132.41" y="1455" width="205.18" height="35" as="geometry" />
        </mxCell>
        <mxCell id="joO3hJPOTFWpYZf8FIq4-97" style="edgeStyle=orthogonalEdgeStyle;rounded=0;orthogonalLoop=1;jettySize=auto;html=1;exitX=0;exitY=0.5;exitDx=0;exitDy=0;entryX=0;entryY=0.5;entryDx=0;entryDy=0;fontSize=16;endArrow=classic;endFill=1;" edge="1" parent="1" source="joO3hJPOTFWpYZf8FIq4-96" target="joO3hJPOTFWpYZf8FIq4-91">
          <mxGeometry relative="1" as="geometry">
            <Array as="points">
              <mxPoint x="40" y="1945" />
              <mxPoint x="40" y="1473" />
            </Array>
          </mxGeometry>
        </mxCell>
        <mxCell id="joO3hJPOTFWpYZf8FIq4-96" value="WriteLine();" style="rounded=1;whiteSpace=wrap;html=1;fontSize=16;strokeWidth=1;" vertex="1" parent="1">
          <mxGeometry x="177.5" y="1930" width="120" height="30" as="geometry" />
        </mxCell>
        <mxCell id="joO3hJPOTFWpYZf8FIq4-100" style="edgeStyle=orthogonalEdgeStyle;rounded=0;orthogonalLoop=1;jettySize=auto;html=1;exitX=0.5;exitY=1;exitDx=0;exitDy=0;fontSize=16;endArrow=classic;endFill=1;" edge="1" parent="1" source="joO3hJPOTFWpYZf8FIq4-99" target="joO3hJPOTFWpYZf8FIq4-101">
          <mxGeometry relative="1" as="geometry">
            <mxPoint x="248.75" y="2080" as="targetPoint" />
          </mxGeometry>
        </mxCell>
        <mxCell id="joO3hJPOTFWpYZf8FIq4-99" value="Console.ForegroundColor = ConsoleColor.White;" style="rounded=1;whiteSpace=wrap;html=1;fontSize=16;strokeWidth=1;" vertex="1" parent="1">
          <mxGeometry x="114" y="1990" width="270" height="50" as="geometry" />
        </mxCell>
        <mxCell id="joO3hJPOTFWpYZf8FIq4-101" value="Кінець" style="ellipse;whiteSpace=wrap;html=1;rounded=1;fontSize=16;strokeWidth=1;" vertex="1" parent="1">
          <mxGeometry x="189" y="2070" width="120" height="40" as="geometry" />
        </mxCell>
      </root>
    </mxGraphModel>
  </diagram>
</mxfile>
